<svg width="20" height="27" viewBox="0 0 20 27" fill="none" xmlns="http://www.w3.org/2000/svg">
<path d="M8.97229 26.4221C1.40469 15.3436 0 14.2066 0 10.1351C0 4.55797 4.47714 0.0368652 10 0.0368652C15.5229 0.0368652 20 4.55797 20 10.1351C20 14.2066 18.5953 15.3436 11.0277 26.4221C10.5311 27.1466 9.46885 27.1465 8.97229 26.4221ZM10 14.3427C12.3012 14.3427 14.1667 12.4589 14.1667 10.1351C14.1667 7.81128 12.3012 5.92749 10 5.92749C7.6988 5.92749 5.83333 7.81128 5.83333 10.1351C5.83333 12.4589 7.6988 14.3427 10 14.3427Z" fill="#ff4d40"/>
</svg>
